<?xml version="1.0" encoding="UTF-8"?><svg xmlns="http://www.w3.org/2000/svg" xmlns:xlink="http://www.w3.org/1999/xlink" fill-opacity="1" color-rendering="auto" color-interpolation="auto" stroke="black" text-rendering="auto" stroke-linecap="square" width="313" stroke-miterlimit="10" stroke-opacity="1" shape-rendering="auto" fill="black" stroke-dasharray="none" font-weight="normal" stroke-width="1" height="236" font-family="'Dialog'" font-style="normal" stroke-linejoin="miter" font-size="12" stroke-dashoffset="0" image-rendering="auto">
  <!--Generated by ySVG-->
  <defs id="genericDefs"/>
  <g>
    <defs id="defs1">
      <clipPath clipPathUnits="userSpaceOnUse" id="clipPath1">
        <path d="M0 0 L313 0 L313 236 L0 236 L0 0 Z"/>
      </clipPath>
      <clipPath clipPathUnits="userSpaceOnUse" id="clipPath2">
        <path d="M33 104 L346 104 L346 340 L33 340 L33 104 Z"/>
      </clipPath>
    </defs>
    <g fill="white" transform="translate(-33,-104)" stroke="white">
      <rect x="33" width="313" height="236" y="104" clip-path="url(#clipPath2)" stroke="none"/>
    </g>
    <g stroke-miterlimit="1.45" font-family="sans-serif" transform="matrix(1,0,0,1,-33,-104)" stroke-linecap="butt">
      <text x="59.0732" xml:space="preserve" y="137.1699" clip-path="url(#clipPath2)" stroke="none">Background</text>
      <text x="67.6689" xml:space="preserve" y="151.1387" clip-path="url(#clipPath2)" stroke="none">variables</text>
      <ellipse rx="47" fill="none" ry="21" clip-path="url(#clipPath2)" cx="95" cy="140"/>
      <text x="259.2324" xml:space="preserve" y="172.1699" clip-path="url(#clipPath2)" stroke="none">Problem</text>
      <text x="256.6689" xml:space="preserve" y="186.1387" clip-path="url(#clipPath2)" stroke="none">variables</text>
      <ellipse rx="47" fill="none" ry="21" clip-path="url(#clipPath2)" cx="284" cy="175"/>
      <text x="153.3486" xml:space="preserve" y="209.1699" clip-path="url(#clipPath2)" stroke="none">Mediating</text>
      <text x="155.6689" xml:space="preserve" y="223.1387" clip-path="url(#clipPath2)" stroke="none">variables</text>
      <ellipse rx="47" fill="none" ry="21" clip-path="url(#clipPath2)" cx="183" cy="212"/>
      <text x="131.1191" xml:space="preserve" y="301.1699" clip-path="url(#clipPath2)" stroke="none">Symptom</text>
      <text x="132.6689" xml:space="preserve" y="315.1387" clip-path="url(#clipPath2)" stroke="none">variables</text>
      <ellipse rx="47" fill="none" ry="21" clip-path="url(#clipPath2)" cx="160" cy="304"/>
      <path fill="none" d="M138.4185 148.0405 L232.7152 165.5028" clip-path="url(#clipPath2)"/>
      <path d="M240.5815 166.9595 L229.6925 159.8581 L231.7319 165.3207 L227.8717 169.6909 Z" clip-path="url(#clipPath2)" stroke="none"/>
      <path fill="none" d="M247.6546 188.3147 L226.8572 195.9335" clip-path="url(#clipPath2)"/>
      <path d="M219.3454 198.6853 L232.3331 199.2524 L227.7962 195.5895 L228.8932 189.8627 Z" clip-path="url(#clipPath2)" stroke="none"/>
      <path fill="none" d="M117.5265 158.4308 L154.2818 188.5033" clip-path="url(#clipPath2)"/>
      <path d="M160.4735 193.5692 L154.3522 182.1006 L153.5078 187.8701 L148.0198 189.8401 Z" clip-path="url(#clipPath2)" stroke="none"/>
      <path fill="none" d="M265.4523 194.2956 L184.0917 278.9369" clip-path="url(#clipPath2)"/>
      <path d="M178.5477 284.7044 L190.4684 279.5181 L184.7847 278.2159 L183.259 272.5881 Z" clip-path="url(#clipPath2)" stroke="none"/>
      <path fill="none" d="M103.1957 160.6783 L148.8567 275.8846" clip-path="url(#clipPath2)"/>
      <path d="M151.8044 283.3217 L152.0311 270.3237 L148.4882 274.955 L142.7346 274.0083 Z" clip-path="url(#clipPath2)" stroke="none"/>
      <path fill="none" d="M177.7825 232.8702 L167.1578 275.3687" clip-path="url(#clipPath2)"/>
      <path d="M165.2175 283.1298 L172.9787 272.7008 L167.4004 274.3985 L163.2773 270.2754 Z" clip-path="url(#clipPath2)" stroke="none"/>
    </g>
  </g>
</svg>
